<svg width="127" height="34" viewBox="0 0 127 34" fill="none" xmlns="http://www.w3.org/2000/svg">
<path d="M12.5339 1.01207C11.6559 1.30339 10.6715 3.03253 10.033 5.38189C9.80689 6.21827 9.33466 8.49246 9.19498 9.42281C9.11517 9.96786 8.88903 11.9883 8.78926 13.0878C8.39019 17.5892 8.69614 23.1055 9.59405 27.5599C10.1328 30.2194 11.1172 32.7191 11.9353 33.5085C13.2988 34.8336 14.6755 33.1044 15.6932 28.7816C16.1122 27.0243 16.5778 23.7821 16.6509 22.1752C16.6643 21.9872 16.6842 24.5527 16.7042 27.8888L16.7374 33.9502L17.203 33.922C19.5376 33.7998 21.6194 30.4637 22.7434 25.0696C23.6546 20.6716 23.7145 14.9673 22.8898 10.4189C22.5306 8.40788 21.8322 6.0961 21.1471 4.6301C20.9543 4.21661 20.5552 3.53999 20.2625 3.1265C19.3912 1.88604 18.5199 1.2658 17.4225 1.10604C17.0899 1.05906 16.7906 1.04026 16.7574 1.06845C16.7308 1.09665 16.6975 3.81252 16.6975 7.10163C16.6909 12.477 16.6776 12.9844 16.6044 12.0541C16.4248 9.90207 15.9991 7.205 15.5668 5.49466C15.1478 3.84071 14.7554 2.86337 14.1767 2.0364C13.5315 1.11544 13.0726 0.833519 12.5339 1.01207Z" fill="url(#paint0_linear_290_232)"/>
<path d="M5.58528 4.83625C5.31923 4.91143 4.82039 5.71022 4.561 6.47141C3.82937 8.66102 3.40369 12.1663 3.33718 16.5173C3.26402 21.263 3.63649 25.4449 4.36811 28.048C4.8337 29.7301 5.31923 30.5195 5.89788 30.5195C6.849 30.5195 7.707 27.5781 8.07947 23.0016C8.2391 20.9905 8.279 15.399 8.14598 13.2094C7.89989 9.25307 7.38775 6.55599 6.65612 5.4095C6.31026 4.86445 6.03756 4.71409 5.58528 4.83625Z" fill="url(#paint1_linear_290_232)"/>
<path d="M1.32424 10.1725C1.16815 10.2163 0.875491 10.6807 0.723307 11.1234C0.294072 12.3966 0.0443351 14.435 0.00531376 16.9651C-0.0376098 19.7247 0.18091 22.1565 0.610145 23.6702C0.883295 24.6484 1.16815 25.1074 1.50764 25.1074C2.06564 25.1074 2.56902 23.397 2.78754 20.7357C2.88119 19.5663 2.9046 16.3148 2.82656 15.0415C2.68218 12.7409 2.38172 11.1726 1.95248 10.5059C1.74957 10.1889 1.58958 10.1015 1.32424 10.1725Z" fill="url(#paint2_linear_290_232)"/>
<path d="M23.8672 17.6452V30.4258H24.0534C24.6653 30.4258 25.5699 29.8431 26.2018 29.0256C28.1106 26.5916 29.2613 21.2539 29.0019 16.0571C28.7359 10.8697 27.3657 6.77236 25.4502 5.42852C24.9713 5.09961 24.3727 4.86468 23.9869 4.86468C23.8738 4.86468 23.8672 5.5319 23.8672 17.6452Z" fill="url(#paint3_linear_290_232)"/>
<path d="M29.4768 13.9049C29.5037 15.1547 29.524 17.739 29.524 19.6561L29.5307 23.1426L29.6725 22.9076C29.9019 22.5223 30.3069 21.2255 30.4621 20.3703C30.6444 19.3178 30.7658 17.5135 30.7051 16.5174C30.6106 14.7788 30.2664 13.1155 29.794 12.063C29.443 11.3018 29.4295 11.3957 29.4768 13.9049Z" fill="url(#paint4_linear_290_232)"/>
<path d="M121.047 19.4725C121.047 21.9064 122.344 23.4896 124.571 23.4896C125.349 23.4896 126.128 23.2061 126.668 22.7571V21.3393C126.149 21.8119 125.436 22.1191 124.679 22.1191C123.295 22.1191 122.387 21.1266 122.387 19.4252V16.2588L121.047 16.2824V19.4725Z" fill="black"/>
<path d="M118.82 13.0923H121.047H122.387H126.668V11.769H122.387V8.7207H121.047V11.769H118.82V13.0923Z" fill="black"/>
<path d="M111.771 12.904C109.393 12.904 108.118 15.0543 108.118 17.4882V23.2304H106.777V17.3701C106.777 14.0618 108.615 11.5098 111.771 11.5098C114.993 11.5098 116.873 14.0382 116.873 17.3465V23.2304H115.533V17.5119C115.533 15.0543 114.214 12.904 111.771 12.904Z" fill="black"/>
<path d="M92.005 23.4903C91.0321 23.4903 90.4268 22.8759 90.1674 21.6944L88.0703 11.7697H89.3458L91.3564 21.4109C91.4645 21.9071 91.6591 22.1434 92.005 22.1434C92.3077 22.1434 92.5239 21.8835 92.6103 21.4818L94.4696 13.282C94.7506 12.0769 95.356 11.5098 96.3072 11.5098C97.2369 11.5098 97.8422 12.0769 98.1016 13.2584L99.9392 21.4818C100.047 21.9071 100.264 22.1434 100.588 22.1434C100.912 22.1434 101.107 21.9071 101.215 21.4109L103.204 11.7697H104.458L102.382 21.6944C102.123 22.8996 101.539 23.4903 100.588 23.4903C99.5933 23.4903 99.0529 22.8996 98.7934 21.7417L96.9558 13.4947C96.8477 13.0457 96.6099 12.8094 96.2856 12.8094C95.9613 12.8094 95.7235 13.0457 95.637 13.4947L93.7778 21.7417C93.5183 22.8996 92.9779 23.4903 92.005 23.4903Z" fill="black"/>
<path d="M84.4177 28.5H85.7581V17.4646C85.7581 14.1091 83.3367 11.5098 80.2452 11.5098C77.1104 11.5098 74.7539 14.2036 74.7539 17.4646C74.7539 20.8437 77.0888 23.4903 80.1803 23.4903H80.2452V22.0961C77.9319 22.0961 76.0943 19.993 76.0943 17.4882C76.0943 14.9834 77.9319 12.904 80.2452 12.904C82.58 12.904 84.4177 14.9834 84.4177 17.4882V21.0092V28.5Z" fill="black"/>
<path d="M72.8164 17.4646C72.8164 20.7728 70.4167 23.4667 67.3035 23.4667C64.212 23.4667 61.8122 20.7728 61.8122 17.4646C61.8122 14.2036 64.1687 11.5098 67.3035 11.5098V12.904C64.9903 12.904 63.1526 14.9834 63.1526 17.4882C63.1526 19.993 64.9903 22.0725 67.3035 22.0725C69.6384 22.0725 71.476 19.993 71.476 17.4882C71.476 16.6803 71.2848 15.9166 70.9474 15.2527L72.0909 14.5012C72.5531 15.3743 72.8164 16.3864 72.8164 17.4646Z" fill="black"/>
<path d="M57.3438 6.5H58.7039V23.2303H57.3438V6.5Z" fill="black"/>
<path d="M43.8672 17.4648C43.8672 20.8912 46.1804 23.4669 49.272 23.4669C51.1961 23.4669 52.8391 22.5217 53.7904 20.6313L52.7527 20.0169C51.996 21.482 50.6989 22.0727 49.272 22.0727C47.0452 22.0727 45.4021 20.3477 45.186 18.0083C45.1346 17.6311 45.1934 17.0634 45.2292 16.8268C45.4238 14.6055 46.8506 12.8805 49.0342 12.8805C51.1529 12.8805 52.6878 14.4401 52.7311 16.8268H48.9801V18.0083H54.0714V17.134C54.0714 13.873 52.0825 11.4863 49.0342 11.4863C45.9642 11.4863 43.8672 14.1566 43.8672 17.4648Z" fill="black"/>
<defs>
<linearGradient id="paint0_linear_290_232" x1="16.0435" y1="0.96138" x2="16.0435" y2="33.9502" gradientUnits="userSpaceOnUse">
<stop stop-color="#E3F5FF"/>
<stop offset="1" stop-color="#A9C5DB"/>
</linearGradient>
<linearGradient id="paint1_linear_290_232" x1="5.77709" y1="4.79646" x2="5.77709" y2="30.5195" gradientUnits="userSpaceOnUse">
<stop stop-color="#E3F5FF"/>
<stop offset="1" stop-color="#A9C5DB"/>
</linearGradient>
<linearGradient id="paint2_linear_290_232" x1="1.43677" y1="10.1494" x2="1.43677" y2="25.1074" gradientUnits="userSpaceOnUse">
<stop stop-color="#E3F5FF"/>
<stop offset="1" stop-color="#A9C5DB"/>
</linearGradient>
<linearGradient id="paint3_linear_290_232" x1="26.4527" y1="4.86468" x2="26.4527" y2="30.4258" gradientUnits="userSpaceOnUse">
<stop stop-color="#E3F5FF"/>
<stop offset="1" stop-color="#A9C5DB"/>
</linearGradient>
<linearGradient id="paint4_linear_290_232" x1="30.089" y1="11.6444" x2="30.089" y2="23.1426" gradientUnits="userSpaceOnUse">
<stop stop-color="#E3F5FF"/>
<stop offset="1" stop-color="#A9C5DB"/>
</linearGradient>
</defs>
</svg>
